<mxfile host="app.diagrams.net" modified="2022-12-08T12:18:20.784Z" agent="5.0 (Windows NT 10.0; Win64; x64) AppleWebKit/537.36 (KHTML, like Gecko) Chrome/107.0.0.0 Safari/537.36" version="20.6.0" etag="BoYQv_tsjUIXwRzhjf_H" type="github">
  <diagram id="_kXGo4iluYgXWChyUHFs" name="Страница 1">
    <mxGraphModel dx="4217" dy="2133" grid="1" gridSize="10" guides="1" tooltips="1" connect="1" arrows="1" fold="1" page="1" pageScale="1" pageWidth="827" pageHeight="1169" math="0" shadow="0">
      <root>
        <mxCell id="0" />
        <mxCell id="1" parent="0" />
        <mxCell id="PXMOqG3apg1fKfNR8DtC-1" value="" style="whiteSpace=wrap;html=1;aspect=fixed;fillColor=#dae8fc;strokeColor=#6c8ebf;" vertex="1" parent="1">
          <mxGeometry x="-2310" y="-570" width="4200" height="4200" as="geometry" />
        </mxCell>
        <mxCell id="PXMOqG3apg1fKfNR8DtC-85" style="edgeStyle=orthogonalEdgeStyle;rounded=0;orthogonalLoop=1;jettySize=auto;html=1;exitX=1;exitY=0.5;exitDx=0;exitDy=0;entryX=0.44;entryY=-0.003;entryDx=0;entryDy=0;entryPerimeter=0;strokeColor=#FF0000;" edge="1" parent="1" source="PXMOqG3apg1fKfNR8DtC-2" target="PXMOqG3apg1fKfNR8DtC-5">
          <mxGeometry relative="1" as="geometry" />
        </mxCell>
        <mxCell id="PXMOqG3apg1fKfNR8DtC-89" style="edgeStyle=orthogonalEdgeStyle;rounded=0;orthogonalLoop=1;jettySize=auto;html=1;exitX=0;exitY=0.5;exitDx=0;exitDy=0;strokeColor=#FF0000;" edge="1" parent="1" source="PXMOqG3apg1fKfNR8DtC-2" target="PXMOqG3apg1fKfNR8DtC-88">
          <mxGeometry relative="1" as="geometry" />
        </mxCell>
        <mxCell id="PXMOqG3apg1fKfNR8DtC-109" style="edgeStyle=orthogonalEdgeStyle;rounded=0;orthogonalLoop=1;jettySize=auto;html=1;exitX=0;exitY=0.5;exitDx=0;exitDy=0;entryX=0.5;entryY=0;entryDx=0;entryDy=0;strokeColor=#FF0000;" edge="1" parent="1" source="PXMOqG3apg1fKfNR8DtC-2" target="PXMOqG3apg1fKfNR8DtC-107">
          <mxGeometry relative="1" as="geometry" />
        </mxCell>
        <mxCell id="PXMOqG3apg1fKfNR8DtC-2" value="Главная&amp;nbsp;страница" style="text;html=1;align=center;verticalAlign=middle;whiteSpace=wrap;rounded=0;fillColor=#ffff88;strokeColor=#36393d;" vertex="1" parent="1">
          <mxGeometry x="130" y="130" width="450" height="40" as="geometry" />
        </mxCell>
        <mxCell id="PXMOqG3apg1fKfNR8DtC-187" style="edgeStyle=orthogonalEdgeStyle;rounded=0;orthogonalLoop=1;jettySize=auto;html=1;exitX=0.25;exitY=1;exitDx=0;exitDy=0;entryX=0.5;entryY=1;entryDx=0;entryDy=0;strokeColor=#FF0000;" edge="1" parent="1" source="PXMOqG3apg1fKfNR8DtC-5" target="PXMOqG3apg1fKfNR8DtC-107">
          <mxGeometry relative="1" as="geometry">
            <Array as="points">
              <mxPoint x="770" y="1240" />
              <mxPoint x="-825" y="1240" />
            </Array>
          </mxGeometry>
        </mxCell>
        <mxCell id="PXMOqG3apg1fKfNR8DtC-217" style="edgeStyle=orthogonalEdgeStyle;rounded=0;orthogonalLoop=1;jettySize=auto;html=1;exitX=0.25;exitY=1;exitDx=0;exitDy=0;entryX=0.5;entryY=1;entryDx=0;entryDy=0;strokeColor=#FF0000;fontSize=14;" edge="1" parent="1" source="PXMOqG3apg1fKfNR8DtC-5" target="PXMOqG3apg1fKfNR8DtC-189">
          <mxGeometry relative="1" as="geometry">
            <Array as="points">
              <mxPoint x="770" y="1240" />
              <mxPoint x="-1860" y="1240" />
            </Array>
          </mxGeometry>
        </mxCell>
        <mxCell id="PXMOqG3apg1fKfNR8DtC-5" value="" style="whiteSpace=wrap;html=1;aspect=fixed;fillColor=#cdeb8b;strokeColor=#36393d;" vertex="1" parent="1">
          <mxGeometry x="580" y="240" width="760" height="760" as="geometry" />
        </mxCell>
        <mxCell id="PXMOqG3apg1fKfNR8DtC-24" style="edgeStyle=orthogonalEdgeStyle;rounded=0;orthogonalLoop=1;jettySize=auto;html=1;exitX=0;exitY=0.5;exitDx=0;exitDy=0;entryX=0.5;entryY=0;entryDx=0;entryDy=0;" edge="1" parent="1" source="PXMOqG3apg1fKfNR8DtC-6">
          <mxGeometry relative="1" as="geometry">
            <mxPoint x="745" y="340" as="targetPoint" />
          </mxGeometry>
        </mxCell>
        <mxCell id="PXMOqG3apg1fKfNR8DtC-50" style="edgeStyle=orthogonalEdgeStyle;rounded=0;orthogonalLoop=1;jettySize=auto;html=1;entryX=0.5;entryY=0;entryDx=0;entryDy=0;" edge="1" parent="1" source="PXMOqG3apg1fKfNR8DtC-6" target="PXMOqG3apg1fKfNR8DtC-39">
          <mxGeometry relative="1" as="geometry" />
        </mxCell>
        <mxCell id="PXMOqG3apg1fKfNR8DtC-6" value="" style="rounded=0;whiteSpace=wrap;html=1;fillColor=#ffff88;strokeColor=#36393d;" vertex="1" parent="1">
          <mxGeometry x="837.5" y="250" width="135" height="60" as="geometry" />
        </mxCell>
        <mxCell id="PXMOqG3apg1fKfNR8DtC-7" value="Авторизация/регистрация" style="text;html=1;strokeColor=none;fillColor=none;align=center;verticalAlign=middle;whiteSpace=wrap;rounded=0;" vertex="1" parent="1">
          <mxGeometry x="875" y="265" width="60" height="30" as="geometry" />
        </mxCell>
        <mxCell id="PXMOqG3apg1fKfNR8DtC-30" style="edgeStyle=orthogonalEdgeStyle;rounded=0;orthogonalLoop=1;jettySize=auto;html=1;exitX=0.5;exitY=1;exitDx=0;exitDy=0;entryX=0.5;entryY=0;entryDx=0;entryDy=0;" edge="1" parent="1" source="PXMOqG3apg1fKfNR8DtC-9" target="PXMOqG3apg1fKfNR8DtC-22">
          <mxGeometry relative="1" as="geometry" />
        </mxCell>
        <mxCell id="PXMOqG3apg1fKfNR8DtC-9" value="" style="whiteSpace=wrap;html=1;aspect=fixed;fillColor=#cce5ff;strokeColor=#36393d;" vertex="1" parent="1">
          <mxGeometry x="650" y="340" width="190" height="190" as="geometry" />
        </mxCell>
        <mxCell id="PXMOqG3apg1fKfNR8DtC-13" value="" style="rounded=0;whiteSpace=wrap;html=1;labelBackgroundColor=#ffffff;fillColor=#ffff88;strokeColor=#36393d;" vertex="1" parent="1">
          <mxGeometry x="695" y="350" width="100" height="30" as="geometry" />
        </mxCell>
        <mxCell id="PXMOqG3apg1fKfNR8DtC-29" value="" style="edgeStyle=orthogonalEdgeStyle;rounded=0;orthogonalLoop=1;jettySize=auto;html=1;" edge="1" parent="1">
          <mxGeometry relative="1" as="geometry">
            <mxPoint x="745" y="380" as="sourcePoint" />
            <mxPoint x="749.3333333333335" y="469.9999999999999" as="targetPoint" />
          </mxGeometry>
        </mxCell>
        <mxCell id="PXMOqG3apg1fKfNR8DtC-15" value="" style="whiteSpace=wrap;html=1;aspect=fixed;labelBackgroundColor=#ffffff;fillColor=#ffff88;strokeColor=#36393d;" vertex="1" parent="1">
          <mxGeometry x="690" y="400" width="120" height="120" as="geometry" />
        </mxCell>
        <mxCell id="PXMOqG3apg1fKfNR8DtC-22" value="" style="rounded=0;whiteSpace=wrap;html=1;labelBackgroundColor=#ffffff;fillColor=#ffff88;strokeColor=#36393d;" vertex="1" parent="1">
          <mxGeometry x="676.5" y="580" width="137" height="50" as="geometry" />
        </mxCell>
        <mxCell id="PXMOqG3apg1fKfNR8DtC-68" style="edgeStyle=orthogonalEdgeStyle;rounded=0;orthogonalLoop=1;jettySize=auto;html=1;exitX=0.5;exitY=1;exitDx=0;exitDy=0;entryX=0.5;entryY=0;entryDx=0;entryDy=0;" edge="1" parent="1" source="PXMOqG3apg1fKfNR8DtC-31" target="PXMOqG3apg1fKfNR8DtC-59">
          <mxGeometry relative="1" as="geometry" />
        </mxCell>
        <mxCell id="PXMOqG3apg1fKfNR8DtC-31" value="" style="whiteSpace=wrap;html=1;aspect=fixed;labelBackgroundColor=#ffffff;fillColor=#cce5ff;strokeColor=#36393d;" vertex="1" parent="1">
          <mxGeometry x="970" y="335" width="260" height="260" as="geometry" />
        </mxCell>
        <mxCell id="PXMOqG3apg1fKfNR8DtC-34" value="" style="rounded=0;whiteSpace=wrap;html=1;labelBackgroundColor=#ffffff;fillColor=#ffff88;strokeColor=#36393d;" vertex="1" parent="1">
          <mxGeometry x="1025" y="340" width="150" height="30" as="geometry" />
        </mxCell>
        <mxCell id="PXMOqG3apg1fKfNR8DtC-39" value="Зарегистрироваться" style="text;html=1;strokeColor=none;fillColor=none;align=center;verticalAlign=middle;whiteSpace=wrap;rounded=0;labelBackgroundColor=#FFFF99;" vertex="1" parent="1">
          <mxGeometry x="1040" y="335" width="120" height="30" as="geometry" />
        </mxCell>
        <mxCell id="PXMOqG3apg1fKfNR8DtC-41" value="" style="whiteSpace=wrap;html=1;aspect=fixed;labelBackgroundColor=#FFFF99;fillColor=#FFFF99;" vertex="1" parent="1">
          <mxGeometry x="1000" y="380" width="200" height="200" as="geometry" />
        </mxCell>
        <mxCell id="PXMOqG3apg1fKfNR8DtC-42" value="введите данные" style="text;html=1;strokeColor=none;fillColor=none;align=center;verticalAlign=middle;whiteSpace=wrap;rounded=0;labelBackgroundColor=#FFFF99;" vertex="1" parent="1">
          <mxGeometry x="1045" y="390" width="110" height="30" as="geometry" />
        </mxCell>
        <mxCell id="PXMOqG3apg1fKfNR8DtC-43" value="Фамилия" style="text;html=1;strokeColor=none;fillColor=none;align=center;verticalAlign=middle;whiteSpace=wrap;rounded=0;labelBackgroundColor=#FFFF99;" vertex="1" parent="1">
          <mxGeometry x="1070" y="420" width="60" height="30" as="geometry" />
        </mxCell>
        <mxCell id="PXMOqG3apg1fKfNR8DtC-44" value="Имя" style="text;html=1;strokeColor=none;fillColor=none;align=center;verticalAlign=middle;whiteSpace=wrap;rounded=0;labelBackgroundColor=#FFFF99;" vertex="1" parent="1">
          <mxGeometry x="1070" y="440" width="60" height="30" as="geometry" />
        </mxCell>
        <mxCell id="PXMOqG3apg1fKfNR8DtC-45" value="страна/город" style="text;html=1;strokeColor=none;fillColor=none;align=center;verticalAlign=middle;whiteSpace=wrap;rounded=0;labelBackgroundColor=#FFFF99;" vertex="1" parent="1">
          <mxGeometry x="1060" y="465" width="80" height="30" as="geometry" />
        </mxCell>
        <mxCell id="PXMOqG3apg1fKfNR8DtC-46" value="email" style="text;html=1;strokeColor=none;fillColor=none;align=center;verticalAlign=middle;whiteSpace=wrap;rounded=0;labelBackgroundColor=#FFFF99;" vertex="1" parent="1">
          <mxGeometry x="1070" y="490" width="60" height="30" as="geometry" />
        </mxCell>
        <mxCell id="PXMOqG3apg1fKfNR8DtC-47" value="password" style="text;html=1;strokeColor=none;fillColor=none;align=center;verticalAlign=middle;whiteSpace=wrap;rounded=0;labelBackgroundColor=#FFFF99;" vertex="1" parent="1">
          <mxGeometry x="1070" y="520" width="60" height="30" as="geometry" />
        </mxCell>
        <mxCell id="PXMOqG3apg1fKfNR8DtC-48" value="password" style="text;html=1;strokeColor=none;fillColor=none;align=center;verticalAlign=middle;whiteSpace=wrap;rounded=0;labelBackgroundColor=#FFFF99;" vertex="1" parent="1">
          <mxGeometry x="1070" y="540" width="60" height="30" as="geometry" />
        </mxCell>
        <mxCell id="PXMOqG3apg1fKfNR8DtC-51" value="На главную страницу" style="text;html=1;strokeColor=none;fillColor=none;align=center;verticalAlign=middle;whiteSpace=wrap;rounded=0;labelBackgroundColor=#FFFF99;" vertex="1" parent="1">
          <mxGeometry x="690" y="590" width="110" height="30" as="geometry" />
        </mxCell>
        <mxCell id="PXMOqG3apg1fKfNR8DtC-52" value="password" style="text;html=1;strokeColor=none;fillColor=none;align=center;verticalAlign=middle;whiteSpace=wrap;rounded=0;labelBackgroundColor=#FFFF99;" vertex="1" parent="1">
          <mxGeometry x="720" y="480" width="60" height="30" as="geometry" />
        </mxCell>
        <mxCell id="PXMOqG3apg1fKfNR8DtC-53" value="email" style="text;html=1;strokeColor=none;fillColor=none;align=center;verticalAlign=middle;whiteSpace=wrap;rounded=0;labelBackgroundColor=#FFFF99;" vertex="1" parent="1">
          <mxGeometry x="720" y="445" width="60" height="30" as="geometry" />
        </mxCell>
        <mxCell id="PXMOqG3apg1fKfNR8DtC-54" value="введите данные" style="text;html=1;strokeColor=none;fillColor=none;align=center;verticalAlign=middle;whiteSpace=wrap;rounded=0;labelBackgroundColor=#FFFF99;" vertex="1" parent="1">
          <mxGeometry x="690" y="410" width="110" height="30" as="geometry" />
        </mxCell>
        <mxCell id="PXMOqG3apg1fKfNR8DtC-55" value="Авторизация" style="text;html=1;strokeColor=none;fillColor=none;align=center;verticalAlign=middle;whiteSpace=wrap;rounded=0;labelBackgroundColor=#FFFF99;" vertex="1" parent="1">
          <mxGeometry x="715" y="350" width="60" height="30" as="geometry" />
        </mxCell>
        <mxCell id="PXMOqG3apg1fKfNR8DtC-84" style="edgeStyle=orthogonalEdgeStyle;rounded=0;orthogonalLoop=1;jettySize=auto;html=1;exitX=0.5;exitY=1;exitDx=0;exitDy=0;entryX=0.5;entryY=1;entryDx=0;entryDy=0;strokeColor=#000000;" edge="1" parent="1" source="PXMOqG3apg1fKfNR8DtC-59" target="PXMOqG3apg1fKfNR8DtC-22">
          <mxGeometry relative="1" as="geometry" />
        </mxCell>
        <mxCell id="PXMOqG3apg1fKfNR8DtC-59" value="" style="whiteSpace=wrap;html=1;aspect=fixed;labelBackgroundColor=#ffffff;fillColor=#cce5ff;strokeColor=#36393d;" vertex="1" parent="1">
          <mxGeometry x="930" y="610" width="360" height="360" as="geometry" />
        </mxCell>
        <mxCell id="PXMOqG3apg1fKfNR8DtC-60" value="" style="rounded=0;whiteSpace=wrap;html=1;labelBackgroundColor=#FFFF99;fillColor=#FFFF99;" vertex="1" parent="1">
          <mxGeometry x="1017.5" y="620" width="165" height="30" as="geometry" />
        </mxCell>
        <mxCell id="PXMOqG3apg1fKfNR8DtC-69" style="edgeStyle=orthogonalEdgeStyle;rounded=0;orthogonalLoop=1;jettySize=auto;html=1;exitX=0.5;exitY=1;exitDx=0;exitDy=0;entryX=0.47;entryY=0;entryDx=0;entryDy=0;entryPerimeter=0;" edge="1" parent="1" source="PXMOqG3apg1fKfNR8DtC-61" target="PXMOqG3apg1fKfNR8DtC-63">
          <mxGeometry relative="1" as="geometry" />
        </mxCell>
        <mxCell id="PXMOqG3apg1fKfNR8DtC-61" value="подтверждение email" style="text;html=1;strokeColor=none;fillColor=none;align=center;verticalAlign=middle;whiteSpace=wrap;rounded=0;labelBackgroundColor=#FFFF99;" vertex="1" parent="1">
          <mxGeometry x="1021.25" y="620" width="160" height="30" as="geometry" />
        </mxCell>
        <mxCell id="PXMOqG3apg1fKfNR8DtC-62" value="" style="rounded=0;whiteSpace=wrap;html=1;labelBackgroundColor=#FFFF99;fillColor=#FFFF99;" vertex="1" parent="1">
          <mxGeometry x="985" y="670" width="232.5" height="30" as="geometry" />
        </mxCell>
        <mxCell id="PXMOqG3apg1fKfNR8DtC-70" style="edgeStyle=orthogonalEdgeStyle;rounded=0;orthogonalLoop=1;jettySize=auto;html=1;exitX=0.5;exitY=1;exitDx=0;exitDy=0;entryX=0.5;entryY=0;entryDx=0;entryDy=0;" edge="1" parent="1" source="PXMOqG3apg1fKfNR8DtC-63" target="PXMOqG3apg1fKfNR8DtC-65">
          <mxGeometry relative="1" as="geometry" />
        </mxCell>
        <mxCell id="PXMOqG3apg1fKfNR8DtC-63" value="ввести код подтверждения" style="text;html=1;strokeColor=none;fillColor=none;align=center;verticalAlign=middle;whiteSpace=wrap;rounded=0;labelBackgroundColor=#FFFF99;" vertex="1" parent="1">
          <mxGeometry x="980" y="670" width="250" height="30" as="geometry" />
        </mxCell>
        <mxCell id="PXMOqG3apg1fKfNR8DtC-64" value="" style="rounded=0;whiteSpace=wrap;html=1;labelBackgroundColor=#FFFF99;fillColor=#FFFF99;" vertex="1" parent="1">
          <mxGeometry x="988.75" y="720" width="225" height="30" as="geometry" />
        </mxCell>
        <mxCell id="PXMOqG3apg1fKfNR8DtC-72" style="edgeStyle=orthogonalEdgeStyle;rounded=0;orthogonalLoop=1;jettySize=auto;html=1;exitX=0.5;exitY=1;exitDx=0;exitDy=0;entryX=0.5;entryY=0;entryDx=0;entryDy=0;" edge="1" parent="1" source="PXMOqG3apg1fKfNR8DtC-65" target="PXMOqG3apg1fKfNR8DtC-67">
          <mxGeometry relative="1" as="geometry" />
        </mxCell>
        <mxCell id="PXMOqG3apg1fKfNR8DtC-65" value="страница верификации" style="text;html=1;strokeColor=none;fillColor=none;align=center;verticalAlign=middle;whiteSpace=wrap;rounded=0;labelBackgroundColor=#FFFF99;" vertex="1" parent="1">
          <mxGeometry x="1000" y="720" width="200" height="30" as="geometry" />
        </mxCell>
        <mxCell id="PXMOqG3apg1fKfNR8DtC-83" style="edgeStyle=orthogonalEdgeStyle;rounded=0;orthogonalLoop=1;jettySize=auto;html=1;exitX=0.5;exitY=1;exitDx=0;exitDy=0;entryX=0.5;entryY=0;entryDx=0;entryDy=0;strokeColor=#000000;" edge="1" parent="1" source="PXMOqG3apg1fKfNR8DtC-67" target="PXMOqG3apg1fKfNR8DtC-81">
          <mxGeometry relative="1" as="geometry" />
        </mxCell>
        <mxCell id="PXMOqG3apg1fKfNR8DtC-67" value="" style="rounded=0;whiteSpace=wrap;html=1;labelBackgroundColor=#FFFF99;fillColor=#FFFF99;" vertex="1" parent="1">
          <mxGeometry x="988.75" y="770" width="231.25" height="90" as="geometry" />
        </mxCell>
        <mxCell id="PXMOqG3apg1fKfNR8DtC-73" value="фото паспорта" style="text;html=1;strokeColor=none;fillColor=none;align=center;verticalAlign=middle;whiteSpace=wrap;rounded=0;labelBackgroundColor=#FFFF99;" vertex="1" parent="1">
          <mxGeometry x="1057.18" y="770" width="94.38" height="30" as="geometry" />
        </mxCell>
        <mxCell id="PXMOqG3apg1fKfNR8DtC-74" value="" style="endArrow=none;html=1;rounded=0;exitX=0;exitY=0.25;exitDx=0;exitDy=0;entryX=1;entryY=0.25;entryDx=0;entryDy=0;fillColor=#ffff88;strokeColor=#FF9933;" edge="1" parent="1" source="PXMOqG3apg1fKfNR8DtC-67" target="PXMOqG3apg1fKfNR8DtC-67">
          <mxGeometry width="50" height="50" relative="1" as="geometry">
            <mxPoint x="920" y="810" as="sourcePoint" />
            <mxPoint x="970" y="760" as="targetPoint" />
          </mxGeometry>
        </mxCell>
        <mxCell id="PXMOqG3apg1fKfNR8DtC-75" value="" style="endArrow=none;html=1;rounded=0;exitX=0;exitY=0.5;exitDx=0;exitDy=0;entryX=1;entryY=0.5;entryDx=0;entryDy=0;fillColor=#ffff88;strokeColor=#FF9933;" edge="1" parent="1" source="PXMOqG3apg1fKfNR8DtC-67" target="PXMOqG3apg1fKfNR8DtC-67">
          <mxGeometry width="50" height="50" relative="1" as="geometry">
            <mxPoint x="998.75" y="802.5" as="sourcePoint" />
            <mxPoint x="1230" y="802.5" as="targetPoint" />
          </mxGeometry>
        </mxCell>
        <mxCell id="PXMOqG3apg1fKfNR8DtC-76" value="" style="endArrow=none;html=1;rounded=0;exitX=0;exitY=0.75;exitDx=0;exitDy=0;entryX=1;entryY=0.75;entryDx=0;entryDy=0;fillColor=#ffff88;strokeColor=#FF9933;" edge="1" parent="1" source="PXMOqG3apg1fKfNR8DtC-67" target="PXMOqG3apg1fKfNR8DtC-67">
          <mxGeometry width="50" height="50" relative="1" as="geometry">
            <mxPoint x="1008.75" y="812.5" as="sourcePoint" />
            <mxPoint x="1240" y="812.5" as="targetPoint" />
          </mxGeometry>
        </mxCell>
        <mxCell id="PXMOqG3apg1fKfNR8DtC-77" value="селфи" style="text;html=1;strokeColor=none;fillColor=none;align=center;verticalAlign=middle;whiteSpace=wrap;rounded=0;labelBackgroundColor=#FFFF99;" vertex="1" parent="1">
          <mxGeometry x="980" y="790" width="70" height="30" as="geometry" />
        </mxCell>
        <mxCell id="PXMOqG3apg1fKfNR8DtC-78" value="ФИО" style="text;html=1;strokeColor=none;fillColor=none;align=center;verticalAlign=middle;whiteSpace=wrap;rounded=0;labelBackgroundColor=#FFFF99;" vertex="1" parent="1">
          <mxGeometry x="980" y="820" width="60" height="10" as="geometry" />
        </mxCell>
        <mxCell id="PXMOqG3apg1fKfNR8DtC-79" value="номер телефона" style="text;html=1;strokeColor=none;fillColor=none;align=center;verticalAlign=middle;whiteSpace=wrap;rounded=0;labelBackgroundColor=#FFFF99;" vertex="1" parent="1">
          <mxGeometry x="980" y="840" width="120" height="20" as="geometry" />
        </mxCell>
        <mxCell id="PXMOqG3apg1fKfNR8DtC-81" value="" style="rounded=0;whiteSpace=wrap;html=1;labelBackgroundColor=#FFFF99;fillColor=#FFFF99;" vertex="1" parent="1">
          <mxGeometry x="1016.25" y="880" width="170" height="60" as="geometry" />
        </mxCell>
        <mxCell id="PXMOqG3apg1fKfNR8DtC-82" value="подтверждение верификации" style="text;html=1;strokeColor=none;fillColor=none;align=center;verticalAlign=middle;whiteSpace=wrap;rounded=0;labelBackgroundColor=#FFFF99;" vertex="1" parent="1">
          <mxGeometry x="1060" y="895" width="100" height="30" as="geometry" />
        </mxCell>
        <mxCell id="PXMOqG3apg1fKfNR8DtC-88" value="" style="whiteSpace=wrap;html=1;aspect=fixed;labelBackgroundColor=#FFFF99;fillColor=#cdeb8b;strokeColor=#36393d;" vertex="1" parent="1">
          <mxGeometry x="-290" y="240" width="460" height="460" as="geometry" />
        </mxCell>
        <mxCell id="PXMOqG3apg1fKfNR8DtC-103" style="edgeStyle=orthogonalEdgeStyle;rounded=0;orthogonalLoop=1;jettySize=auto;html=1;exitX=1;exitY=0.5;exitDx=0;exitDy=0;entryX=1;entryY=0.5;entryDx=0;entryDy=0;strokeColor=#000000;" edge="1" parent="1" source="PXMOqG3apg1fKfNR8DtC-90" target="PXMOqG3apg1fKfNR8DtC-96">
          <mxGeometry relative="1" as="geometry" />
        </mxCell>
        <mxCell id="PXMOqG3apg1fKfNR8DtC-90" value="" style="rounded=0;whiteSpace=wrap;html=1;labelBackgroundColor=#FFFF99;" vertex="1" parent="1">
          <mxGeometry x="-177.5" y="280" width="235" height="40" as="geometry" />
        </mxCell>
        <mxCell id="PXMOqG3apg1fKfNR8DtC-93" value="Кошелёк" style="text;html=1;strokeColor=none;fillColor=none;align=center;verticalAlign=middle;whiteSpace=wrap;rounded=0;labelBackgroundColor=#FFFFFF;" vertex="1" parent="1">
          <mxGeometry x="-110" y="285" width="92.5" height="30" as="geometry" />
        </mxCell>
        <mxCell id="PXMOqG3apg1fKfNR8DtC-94" value="" style="rounded=0;whiteSpace=wrap;html=1;labelBackgroundColor=#FFFFFF;" vertex="1" parent="1">
          <mxGeometry x="-150" y="335" width="180" height="60" as="geometry" />
        </mxCell>
        <mxCell id="PXMOqG3apg1fKfNR8DtC-95" value="Создать кошелёк" style="text;html=1;strokeColor=none;fillColor=none;align=center;verticalAlign=middle;whiteSpace=wrap;rounded=0;labelBackgroundColor=#FFFFFF;" vertex="1" parent="1">
          <mxGeometry x="-105" y="350" width="90" height="30" as="geometry" />
        </mxCell>
        <mxCell id="PXMOqG3apg1fKfNR8DtC-96" value="" style="rounded=0;whiteSpace=wrap;html=1;labelBackgroundColor=#FFFFFF;" vertex="1" parent="1">
          <mxGeometry x="-177.5" y="435" width="230" height="205" as="geometry" />
        </mxCell>
        <mxCell id="PXMOqG3apg1fKfNR8DtC-97" value="Страница с акциями и криптой" style="text;html=1;strokeColor=none;fillColor=none;align=center;verticalAlign=middle;whiteSpace=wrap;rounded=0;labelBackgroundColor=#FFFFFF;" vertex="1" parent="1">
          <mxGeometry x="-138.75" y="455" width="150" height="30" as="geometry" />
        </mxCell>
        <mxCell id="PXMOqG3apg1fKfNR8DtC-98" value="btc = ....." style="text;html=1;strokeColor=none;fillColor=none;align=center;verticalAlign=middle;whiteSpace=wrap;rounded=0;labelBackgroundColor=#FFFFFF;" vertex="1" parent="1">
          <mxGeometry x="-170" y="510" width="60" height="30" as="geometry" />
        </mxCell>
        <mxCell id="PXMOqG3apg1fKfNR8DtC-99" value="eth =....." style="text;html=1;strokeColor=none;fillColor=none;align=center;verticalAlign=middle;whiteSpace=wrap;rounded=0;labelBackgroundColor=#FFFFFF;" vertex="1" parent="1">
          <mxGeometry x="-170" y="530" width="60" height="30" as="geometry" />
        </mxCell>
        <mxCell id="PXMOqG3apg1fKfNR8DtC-100" value="eYe = ...." style="text;html=1;strokeColor=none;fillColor=none;align=center;verticalAlign=middle;whiteSpace=wrap;rounded=0;labelBackgroundColor=#FFFFFF;" vertex="1" parent="1">
          <mxGeometry x="-170" y="550" width="60" height="30" as="geometry" />
        </mxCell>
        <mxCell id="PXMOqG3apg1fKfNR8DtC-101" value="Tesla = ...." style="text;html=1;strokeColor=none;fillColor=none;align=center;verticalAlign=middle;whiteSpace=wrap;rounded=0;labelBackgroundColor=#FFFFFF;" vertex="1" parent="1">
          <mxGeometry x="-170" y="570" width="60" height="30" as="geometry" />
        </mxCell>
        <mxCell id="PXMOqG3apg1fKfNR8DtC-102" value="Apple = ...." style="text;html=1;strokeColor=none;fillColor=none;align=center;verticalAlign=middle;whiteSpace=wrap;rounded=0;labelBackgroundColor=#FFFFFF;" vertex="1" parent="1">
          <mxGeometry x="-170" y="590" width="60" height="30" as="geometry" />
        </mxCell>
        <mxCell id="PXMOqG3apg1fKfNR8DtC-106" value="&lt;span style=&quot;background-color: rgb(205, 235, 139);&quot;&gt;Создание кошелька&lt;/span&gt;" style="text;html=1;strokeColor=none;fillColor=#cdeb8b;align=center;verticalAlign=middle;whiteSpace=wrap;rounded=0;labelBackgroundColor=#B9E0A5;" vertex="1" parent="1">
          <mxGeometry x="20" y="250" width="150" height="20" as="geometry" />
        </mxCell>
        <mxCell id="PXMOqG3apg1fKfNR8DtC-107" value="" style="whiteSpace=wrap;html=1;aspect=fixed;labelBackgroundColor=#CDEB8B;fillColor=#ffcccc;strokeColor=#36393d;" vertex="1" parent="1">
          <mxGeometry x="-1280" y="240" width="910" height="910" as="geometry" />
        </mxCell>
        <mxCell id="PXMOqG3apg1fKfNR8DtC-111" value="" style="rounded=0;whiteSpace=wrap;html=1;labelBackgroundColor=#CDEB8B;fillColor=#f9f7ed;strokeColor=#36393d;" vertex="1" parent="1">
          <mxGeometry x="-1230" y="280" width="810" height="380" as="geometry" />
        </mxCell>
        <mxCell id="PXMOqG3apg1fKfNR8DtC-127" style="edgeStyle=orthogonalEdgeStyle;rounded=0;orthogonalLoop=1;jettySize=auto;html=1;exitX=0.5;exitY=1;exitDx=0;exitDy=0;entryX=0.5;entryY=0;entryDx=0;entryDy=0;strokeColor=#000000;" edge="1" parent="1" source="PXMOqG3apg1fKfNR8DtC-112" target="PXMOqG3apg1fKfNR8DtC-123">
          <mxGeometry relative="1" as="geometry" />
        </mxCell>
        <mxCell id="PXMOqG3apg1fKfNR8DtC-112" value="" style="rounded=0;whiteSpace=wrap;html=1;labelBackgroundColor=#CDEB8B;fillColor=none;" vertex="1" parent="1">
          <mxGeometry x="-1170" y="330" width="160" height="100" as="geometry" />
        </mxCell>
        <mxCell id="PXMOqG3apg1fKfNR8DtC-128" style="edgeStyle=orthogonalEdgeStyle;rounded=0;orthogonalLoop=1;jettySize=auto;html=1;exitX=0.5;exitY=1;exitDx=0;exitDy=0;entryX=0.5;entryY=0;entryDx=0;entryDy=0;strokeColor=#000000;" edge="1" parent="1" source="PXMOqG3apg1fKfNR8DtC-113" target="PXMOqG3apg1fKfNR8DtC-124">
          <mxGeometry relative="1" as="geometry" />
        </mxCell>
        <mxCell id="PXMOqG3apg1fKfNR8DtC-113" value="" style="rounded=0;whiteSpace=wrap;html=1;labelBackgroundColor=#CDEB8B;fillColor=none;" vertex="1" parent="1">
          <mxGeometry x="-1010" y="330" width="170" height="100" as="geometry" />
        </mxCell>
        <mxCell id="PXMOqG3apg1fKfNR8DtC-129" style="edgeStyle=orthogonalEdgeStyle;rounded=0;orthogonalLoop=1;jettySize=auto;html=1;exitX=0.5;exitY=1;exitDx=0;exitDy=0;entryX=0.5;entryY=0;entryDx=0;entryDy=0;strokeColor=#000000;" edge="1" parent="1" source="PXMOqG3apg1fKfNR8DtC-114" target="PXMOqG3apg1fKfNR8DtC-125">
          <mxGeometry relative="1" as="geometry" />
        </mxCell>
        <mxCell id="PXMOqG3apg1fKfNR8DtC-114" value="" style="rounded=0;whiteSpace=wrap;html=1;labelBackgroundColor=#CDEB8B;fillColor=none;" vertex="1" parent="1">
          <mxGeometry x="-840" y="330" width="170" height="100" as="geometry" />
        </mxCell>
        <mxCell id="PXMOqG3apg1fKfNR8DtC-130" style="edgeStyle=orthogonalEdgeStyle;rounded=0;orthogonalLoop=1;jettySize=auto;html=1;exitX=0.5;exitY=1;exitDx=0;exitDy=0;entryX=0.5;entryY=0;entryDx=0;entryDy=0;strokeColor=#000000;" edge="1" parent="1" source="PXMOqG3apg1fKfNR8DtC-115" target="PXMOqG3apg1fKfNR8DtC-126">
          <mxGeometry relative="1" as="geometry" />
        </mxCell>
        <mxCell id="PXMOqG3apg1fKfNR8DtC-115" value="" style="rounded=0;whiteSpace=wrap;html=1;labelBackgroundColor=#CDEB8B;fillColor=none;" vertex="1" parent="1">
          <mxGeometry x="-670" y="330" width="180" height="100" as="geometry" />
        </mxCell>
        <mxCell id="PXMOqG3apg1fKfNR8DtC-119" value="&lt;font style=&quot;font-size: 16px;&quot;&gt;В центре внимания&lt;/font&gt;" style="text;html=1;strokeColor=none;fillColor=none;align=center;verticalAlign=middle;whiteSpace=wrap;rounded=0;labelBackgroundColor=#F9F7ED;" vertex="1" parent="1">
          <mxGeometry x="-1140" y="350" width="100" height="50" as="geometry" />
        </mxCell>
        <mxCell id="PXMOqG3apg1fKfNR8DtC-120" value="&lt;font style=&quot;font-size: 17px;&quot;&gt;Лидер роста&lt;/font&gt;" style="text;html=1;strokeColor=none;fillColor=none;align=center;verticalAlign=middle;whiteSpace=wrap;rounded=0;labelBackgroundColor=#F9F7ED;" vertex="1" parent="1">
          <mxGeometry x="-970" y="360" width="100" height="40" as="geometry" />
        </mxCell>
        <mxCell id="PXMOqG3apg1fKfNR8DtC-121" value="&lt;font style=&quot;font-size: 19px;&quot;&gt;Самые популярные&lt;/font&gt;" style="text;html=1;strokeColor=none;fillColor=none;align=center;verticalAlign=middle;whiteSpace=wrap;rounded=0;labelBackgroundColor=#F9F7ED;" vertex="1" parent="1">
          <mxGeometry x="-800" y="355" width="90" height="50" as="geometry" />
        </mxCell>
        <mxCell id="PXMOqG3apg1fKfNR8DtC-122" value="&lt;font style=&quot;font-size: 16px;&quot;&gt;Монета/акции с максимальным объемом&lt;/font&gt;" style="text;html=1;strokeColor=none;fillColor=none;align=center;verticalAlign=middle;whiteSpace=wrap;rounded=0;labelBackgroundColor=#F9F7ED;" vertex="1" parent="1">
          <mxGeometry x="-640" y="355" width="120" height="45" as="geometry" />
        </mxCell>
        <mxCell id="PXMOqG3apg1fKfNR8DtC-123" value="" style="rounded=0;whiteSpace=wrap;html=1;labelBackgroundColor=#F9F7ED;fillColor=none;" vertex="1" parent="1">
          <mxGeometry x="-1165" y="505" width="150" height="100" as="geometry" />
        </mxCell>
        <mxCell id="PXMOqG3apg1fKfNR8DtC-124" value="" style="rounded=0;whiteSpace=wrap;html=1;labelBackgroundColor=#F9F7ED;fillColor=none;" vertex="1" parent="1">
          <mxGeometry x="-1005" y="505" width="160" height="100" as="geometry" />
        </mxCell>
        <mxCell id="PXMOqG3apg1fKfNR8DtC-125" value="" style="rounded=0;whiteSpace=wrap;html=1;labelBackgroundColor=#F9F7ED;fillColor=none;" vertex="1" parent="1">
          <mxGeometry x="-830" y="505" width="150" height="100" as="geometry" />
        </mxCell>
        <mxCell id="PXMOqG3apg1fKfNR8DtC-126" value="" style="rounded=0;whiteSpace=wrap;html=1;labelBackgroundColor=#F9F7ED;fillColor=none;" vertex="1" parent="1">
          <mxGeometry x="-660" y="505" width="160" height="100" as="geometry" />
        </mxCell>
        <mxCell id="PXMOqG3apg1fKfNR8DtC-131" value="&lt;font style=&quot;font-size: 17px;&quot;&gt;eYe = ...&lt;br&gt;small = ...&lt;/font&gt;" style="text;html=1;strokeColor=none;fillColor=none;align=center;verticalAlign=middle;whiteSpace=wrap;rounded=0;labelBackgroundColor=#F9F7ED;" vertex="1" parent="1">
          <mxGeometry x="-1140" y="530" width="90" height="50" as="geometry" />
        </mxCell>
        <mxCell id="PXMOqG3apg1fKfNR8DtC-132" value="&lt;font style=&quot;font-size: 18px;&quot;&gt;qmall = ...&lt;/font&gt;" style="text;html=1;strokeColor=none;fillColor=none;align=center;verticalAlign=middle;whiteSpace=wrap;rounded=0;labelBackgroundColor=#F9F7ED;" vertex="1" parent="1">
          <mxGeometry x="-970" y="530" width="90" height="40" as="geometry" />
        </mxCell>
        <mxCell id="PXMOqG3apg1fKfNR8DtC-133" value="&lt;font style=&quot;font-size: 18px;&quot;&gt;btc = ...&lt;br&gt;eth = ...&lt;/font&gt;" style="text;html=1;strokeColor=none;fillColor=none;align=center;verticalAlign=middle;whiteSpace=wrap;rounded=0;labelBackgroundColor=#F9F7ED;" vertex="1" parent="1">
          <mxGeometry x="-810" y="520" width="120" height="70" as="geometry" />
        </mxCell>
        <mxCell id="PXMOqG3apg1fKfNR8DtC-134" value="&lt;font style=&quot;font-size: 18px;&quot;&gt;btc = ...&lt;br&gt;eth = ...&lt;/font&gt;" style="text;html=1;strokeColor=none;fillColor=none;align=center;verticalAlign=middle;whiteSpace=wrap;rounded=0;labelBackgroundColor=#F9F7ED;" vertex="1" parent="1">
          <mxGeometry x="-650" y="510" width="140" height="80" as="geometry" />
        </mxCell>
        <mxCell id="PXMOqG3apg1fKfNR8DtC-135" value="" style="rounded=0;whiteSpace=wrap;html=1;labelBackgroundColor=#F9F7ED;fillColor=#f9f7ed;strokeColor=#36393d;" vertex="1" parent="1">
          <mxGeometry x="-1230" y="680" width="810" height="440" as="geometry" />
        </mxCell>
        <mxCell id="PXMOqG3apg1fKfNR8DtC-138" value="" style="rounded=0;whiteSpace=wrap;html=1;labelBackgroundColor=#F9F7ED;fillColor=none;" vertex="1" parent="1">
          <mxGeometry x="-1060" y="720" width="120" height="60" as="geometry" />
        </mxCell>
        <mxCell id="PXMOqG3apg1fKfNR8DtC-139" value="" style="rounded=0;whiteSpace=wrap;html=1;labelBackgroundColor=#F9F7ED;fillColor=none;" vertex="1" parent="1">
          <mxGeometry x="-940" y="720" width="120" height="60" as="geometry" />
        </mxCell>
        <mxCell id="PXMOqG3apg1fKfNR8DtC-140" value="" style="rounded=0;whiteSpace=wrap;html=1;labelBackgroundColor=#F9F7ED;fillColor=none;" vertex="1" parent="1">
          <mxGeometry x="-820" y="720" width="120" height="60" as="geometry" />
        </mxCell>
        <mxCell id="PXMOqG3apg1fKfNR8DtC-166" style="edgeStyle=orthogonalEdgeStyle;rounded=0;orthogonalLoop=1;jettySize=auto;html=1;exitX=0;exitY=0.5;exitDx=0;exitDy=0;entryX=0.5;entryY=0;entryDx=0;entryDy=0;strokeColor=#000000;" edge="1" parent="1" source="PXMOqG3apg1fKfNR8DtC-141" target="PXMOqG3apg1fKfNR8DtC-144">
          <mxGeometry relative="1" as="geometry" />
        </mxCell>
        <mxCell id="PXMOqG3apg1fKfNR8DtC-141" value="" style="rounded=0;whiteSpace=wrap;html=1;labelBackgroundColor=#F9F7ED;fillColor=none;" vertex="1" parent="1">
          <mxGeometry x="-1060" y="780" width="120" height="60" as="geometry" />
        </mxCell>
        <mxCell id="PXMOqG3apg1fKfNR8DtC-163" style="edgeStyle=orthogonalEdgeStyle;rounded=0;orthogonalLoop=1;jettySize=auto;html=1;exitX=0.5;exitY=1;exitDx=0;exitDy=0;entryX=0.5;entryY=0;entryDx=0;entryDy=0;strokeColor=#000000;" edge="1" parent="1" source="PXMOqG3apg1fKfNR8DtC-142" target="PXMOqG3apg1fKfNR8DtC-148">
          <mxGeometry relative="1" as="geometry" />
        </mxCell>
        <mxCell id="PXMOqG3apg1fKfNR8DtC-142" value="" style="rounded=0;whiteSpace=wrap;html=1;labelBackgroundColor=#F9F7ED;fillColor=none;" vertex="1" parent="1">
          <mxGeometry x="-940" y="780" width="120" height="60" as="geometry" />
        </mxCell>
        <mxCell id="PXMOqG3apg1fKfNR8DtC-173" style="edgeStyle=orthogonalEdgeStyle;rounded=0;orthogonalLoop=1;jettySize=auto;html=1;exitX=1;exitY=0.5;exitDx=0;exitDy=0;entryX=0.5;entryY=0;entryDx=0;entryDy=0;strokeColor=#000000;" edge="1" parent="1" source="PXMOqG3apg1fKfNR8DtC-143" target="PXMOqG3apg1fKfNR8DtC-151">
          <mxGeometry relative="1" as="geometry" />
        </mxCell>
        <mxCell id="PXMOqG3apg1fKfNR8DtC-143" value="" style="rounded=0;whiteSpace=wrap;html=1;labelBackgroundColor=#F9F7ED;fillColor=none;" vertex="1" parent="1">
          <mxGeometry x="-820" y="780" width="120" height="60" as="geometry" />
        </mxCell>
        <mxCell id="PXMOqG3apg1fKfNR8DtC-174" style="edgeStyle=orthogonalEdgeStyle;rounded=0;orthogonalLoop=1;jettySize=auto;html=1;exitX=0.5;exitY=1;exitDx=0;exitDy=0;entryX=0.5;entryY=0;entryDx=0;entryDy=0;strokeColor=#000000;" edge="1" parent="1" source="PXMOqG3apg1fKfNR8DtC-144" target="PXMOqG3apg1fKfNR8DtC-145">
          <mxGeometry relative="1" as="geometry" />
        </mxCell>
        <mxCell id="PXMOqG3apg1fKfNR8DtC-144" value="" style="rounded=0;whiteSpace=wrap;html=1;labelBackgroundColor=#F9F7ED;fillColor=none;" vertex="1" parent="1">
          <mxGeometry x="-1200" y="865" width="110" height="35" as="geometry" />
        </mxCell>
        <mxCell id="PXMOqG3apg1fKfNR8DtC-145" value="" style="rounded=0;whiteSpace=wrap;html=1;labelBackgroundColor=#F9F7ED;fillColor=none;" vertex="1" parent="1">
          <mxGeometry x="-1200" y="925" width="110" height="35" as="geometry" />
        </mxCell>
        <mxCell id="PXMOqG3apg1fKfNR8DtC-184" style="edgeStyle=orthogonalEdgeStyle;rounded=0;orthogonalLoop=1;jettySize=auto;html=1;exitX=0.5;exitY=1;exitDx=0;exitDy=0;entryX=0;entryY=0.5;entryDx=0;entryDy=0;strokeColor=#000000;" edge="1" parent="1" source="PXMOqG3apg1fKfNR8DtC-146" target="PXMOqG3apg1fKfNR8DtC-183">
          <mxGeometry relative="1" as="geometry" />
        </mxCell>
        <mxCell id="PXMOqG3apg1fKfNR8DtC-146" value="" style="rounded=0;whiteSpace=wrap;html=1;labelBackgroundColor=#F9F7ED;fillColor=none;" vertex="1" parent="1">
          <mxGeometry x="-1200" y="980" width="110" height="35" as="geometry" />
        </mxCell>
        <mxCell id="PXMOqG3apg1fKfNR8DtC-148" value="" style="rounded=0;whiteSpace=wrap;html=1;labelBackgroundColor=#F9F7ED;fillColor=none;" vertex="1" parent="1">
          <mxGeometry x="-937" y="865" width="110" height="35" as="geometry" />
        </mxCell>
        <mxCell id="PXMOqG3apg1fKfNR8DtC-149" value="" style="rounded=0;whiteSpace=wrap;html=1;labelBackgroundColor=#F9F7ED;fillColor=none;" vertex="1" parent="1">
          <mxGeometry x="-937" y="925" width="110" height="35" as="geometry" />
        </mxCell>
        <mxCell id="PXMOqG3apg1fKfNR8DtC-185" style="edgeStyle=orthogonalEdgeStyle;rounded=0;orthogonalLoop=1;jettySize=auto;html=1;exitX=0;exitY=0.5;exitDx=0;exitDy=0;strokeColor=#000000;" edge="1" parent="1" source="PXMOqG3apg1fKfNR8DtC-150" target="PXMOqG3apg1fKfNR8DtC-182">
          <mxGeometry relative="1" as="geometry" />
        </mxCell>
        <mxCell id="PXMOqG3apg1fKfNR8DtC-150" value="" style="rounded=0;whiteSpace=wrap;html=1;labelBackgroundColor=#F9F7ED;fillColor=none;" vertex="1" parent="1">
          <mxGeometry x="-937" y="990" width="110" height="35" as="geometry" />
        </mxCell>
        <mxCell id="PXMOqG3apg1fKfNR8DtC-177" style="edgeStyle=orthogonalEdgeStyle;rounded=0;orthogonalLoop=1;jettySize=auto;html=1;exitX=0.5;exitY=1;exitDx=0;exitDy=0;entryX=0.5;entryY=0;entryDx=0;entryDy=0;strokeColor=#000000;" edge="1" parent="1" source="PXMOqG3apg1fKfNR8DtC-151" target="PXMOqG3apg1fKfNR8DtC-171">
          <mxGeometry relative="1" as="geometry" />
        </mxCell>
        <mxCell id="PXMOqG3apg1fKfNR8DtC-151" value="" style="rounded=0;whiteSpace=wrap;html=1;labelBackgroundColor=#F9F7ED;fillColor=none;" vertex="1" parent="1">
          <mxGeometry x="-660" y="865" width="110" height="35" as="geometry" />
        </mxCell>
        <mxCell id="PXMOqG3apg1fKfNR8DtC-152" value="" style="rounded=0;whiteSpace=wrap;html=1;labelBackgroundColor=#F9F7ED;fillColor=none;" vertex="1" parent="1">
          <mxGeometry x="-660" y="925" width="110" height="35" as="geometry" />
        </mxCell>
        <mxCell id="PXMOqG3apg1fKfNR8DtC-186" style="edgeStyle=orthogonalEdgeStyle;rounded=0;orthogonalLoop=1;jettySize=auto;html=1;exitX=0.5;exitY=1;exitDx=0;exitDy=0;entryX=1;entryY=0.5;entryDx=0;entryDy=0;strokeColor=#000000;" edge="1" parent="1" source="PXMOqG3apg1fKfNR8DtC-153" target="PXMOqG3apg1fKfNR8DtC-182">
          <mxGeometry relative="1" as="geometry" />
        </mxCell>
        <mxCell id="PXMOqG3apg1fKfNR8DtC-153" value="" style="rounded=0;whiteSpace=wrap;html=1;labelBackgroundColor=#F9F7ED;fillColor=none;" vertex="1" parent="1">
          <mxGeometry x="-660" y="980" width="110" height="35" as="geometry" />
        </mxCell>
        <mxCell id="PXMOqG3apg1fKfNR8DtC-154" value="&lt;font style=&quot;font-size: 15px;&quot;&gt;Рынок криптовалюты&lt;/font&gt;" style="text;html=1;strokeColor=none;fillColor=none;align=center;verticalAlign=middle;whiteSpace=wrap;rounded=0;labelBackgroundColor=#F9F7ED;" vertex="1" parent="1">
          <mxGeometry x="-1050" y="730" width="100" height="40" as="geometry" />
        </mxCell>
        <mxCell id="PXMOqG3apg1fKfNR8DtC-155" value="&lt;font style=&quot;font-size: 15px;&quot;&gt;Рынок акций компаний&lt;/font&gt;" style="text;html=1;strokeColor=none;fillColor=none;align=center;verticalAlign=middle;whiteSpace=wrap;rounded=0;labelBackgroundColor=#F9F7ED;" vertex="1" parent="1">
          <mxGeometry x="-930" y="735" width="90" height="30" as="geometry" />
        </mxCell>
        <mxCell id="PXMOqG3apg1fKfNR8DtC-156" value="&lt;font style=&quot;font-size: 16px;&quot;&gt;Рынок акций стартапов&lt;/font&gt;" style="text;html=1;strokeColor=none;fillColor=none;align=center;verticalAlign=middle;whiteSpace=wrap;rounded=0;labelBackgroundColor=#F9F7ED;" vertex="1" parent="1">
          <mxGeometry x="-810" y="730" width="100" height="40" as="geometry" />
        </mxCell>
        <mxCell id="PXMOqG3apg1fKfNR8DtC-157" value="&lt;font style=&quot;font-size: 17px;&quot;&gt;btc = ...&lt;br&gt;eth = ...&lt;/font&gt;" style="text;html=1;strokeColor=none;fillColor=none;align=center;verticalAlign=middle;whiteSpace=wrap;rounded=0;labelBackgroundColor=#F9F7ED;" vertex="1" parent="1">
          <mxGeometry x="-1050" y="790" width="100" height="40" as="geometry" />
        </mxCell>
        <mxCell id="PXMOqG3apg1fKfNR8DtC-158" value="&lt;font style=&quot;font-size: 17px;&quot;&gt;Tesla = ...&lt;br&gt;Apple = ..&lt;/font&gt;." style="text;html=1;strokeColor=none;fillColor=none;align=center;verticalAlign=middle;whiteSpace=wrap;rounded=0;labelBackgroundColor=#F9F7ED;" vertex="1" parent="1">
          <mxGeometry x="-930" y="780" width="100" height="60" as="geometry" />
        </mxCell>
        <mxCell id="PXMOqG3apg1fKfNR8DtC-159" value="&lt;font style=&quot;font-size: 17px;&quot;&gt;eYe = ...&lt;br&gt;qmall = ...&lt;/font&gt;" style="text;html=1;strokeColor=none;fillColor=none;align=center;verticalAlign=middle;whiteSpace=wrap;rounded=0;labelBackgroundColor=#F9F7ED;" vertex="1" parent="1">
          <mxGeometry x="-792.5" y="795" width="82.5" height="30" as="geometry" />
        </mxCell>
        <mxCell id="PXMOqG3apg1fKfNR8DtC-164" style="edgeStyle=orthogonalEdgeStyle;rounded=0;orthogonalLoop=1;jettySize=auto;html=1;exitX=0.5;exitY=1;exitDx=0;exitDy=0;entryX=0.5;entryY=0;entryDx=0;entryDy=0;strokeColor=#000000;" edge="1" parent="1" source="PXMOqG3apg1fKfNR8DtC-160" target="PXMOqG3apg1fKfNR8DtC-161">
          <mxGeometry relative="1" as="geometry" />
        </mxCell>
        <mxCell id="PXMOqG3apg1fKfNR8DtC-160" value="&lt;font style=&quot;font-size: 15px;&quot;&gt;график акций&lt;/font&gt;" style="text;html=1;strokeColor=none;fillColor=none;align=center;verticalAlign=middle;whiteSpace=wrap;rounded=0;labelBackgroundColor=#F9F7ED;" vertex="1" parent="1">
          <mxGeometry x="-930" y="867.5" width="100" height="32.5" as="geometry" />
        </mxCell>
        <mxCell id="PXMOqG3apg1fKfNR8DtC-165" style="edgeStyle=orthogonalEdgeStyle;rounded=0;orthogonalLoop=1;jettySize=auto;html=1;exitX=0.5;exitY=1;exitDx=0;exitDy=0;entryX=0.5;entryY=0;entryDx=0;entryDy=0;strokeColor=#000000;" edge="1" parent="1" source="PXMOqG3apg1fKfNR8DtC-161" target="PXMOqG3apg1fKfNR8DtC-150">
          <mxGeometry relative="1" as="geometry" />
        </mxCell>
        <mxCell id="PXMOqG3apg1fKfNR8DtC-161" value="&lt;font style=&quot;font-size: 16px;&quot;&gt;начать торги&lt;/font&gt;" style="text;html=1;strokeColor=none;fillColor=none;align=center;verticalAlign=middle;whiteSpace=wrap;rounded=0;labelBackgroundColor=#F9F7ED;" vertex="1" parent="1">
          <mxGeometry x="-932" y="928.75" width="100" height="32.5" as="geometry" />
        </mxCell>
        <mxCell id="PXMOqG3apg1fKfNR8DtC-162" value="&lt;font style=&quot;font-size: 14px;&quot;&gt;закончить торги&lt;/font&gt;" style="text;html=1;strokeColor=none;fillColor=none;align=center;verticalAlign=middle;whiteSpace=wrap;rounded=0;labelBackgroundColor=#F9F7ED;" vertex="1" parent="1">
          <mxGeometry x="-930" y="992.5" width="100" height="30" as="geometry" />
        </mxCell>
        <mxCell id="PXMOqG3apg1fKfNR8DtC-167" value="&lt;font style=&quot;font-size: 16px;&quot;&gt;график btc&lt;/font&gt;" style="text;html=1;strokeColor=none;fillColor=none;align=center;verticalAlign=middle;whiteSpace=wrap;rounded=0;labelBackgroundColor=#F9F7ED;" vertex="1" parent="1">
          <mxGeometry x="-1200" y="867.5" width="110" height="30" as="geometry" />
        </mxCell>
        <mxCell id="PXMOqG3apg1fKfNR8DtC-175" style="edgeStyle=orthogonalEdgeStyle;rounded=0;orthogonalLoop=1;jettySize=auto;html=1;exitX=0.5;exitY=1;exitDx=0;exitDy=0;entryX=0.5;entryY=0;entryDx=0;entryDy=0;strokeColor=#000000;" edge="1" parent="1" source="PXMOqG3apg1fKfNR8DtC-168" target="PXMOqG3apg1fKfNR8DtC-146">
          <mxGeometry relative="1" as="geometry" />
        </mxCell>
        <mxCell id="PXMOqG3apg1fKfNR8DtC-168" value="&lt;font style=&quot;font-size: 15px;&quot;&gt;начать торги&lt;/font&gt;" style="text;html=1;strokeColor=none;fillColor=none;align=center;verticalAlign=middle;whiteSpace=wrap;rounded=0;labelBackgroundColor=#F9F7ED;" vertex="1" parent="1">
          <mxGeometry x="-1200" y="930" width="100" height="30" as="geometry" />
        </mxCell>
        <mxCell id="PXMOqG3apg1fKfNR8DtC-169" value="&lt;font style=&quot;font-size: 14px;&quot;&gt;закончить торги&lt;/font&gt;" style="text;html=1;strokeColor=none;fillColor=none;align=center;verticalAlign=middle;whiteSpace=wrap;rounded=0;labelBackgroundColor=#F9F7ED;" vertex="1" parent="1">
          <mxGeometry x="-1200" y="980" width="117.5" height="30" as="geometry" />
        </mxCell>
        <mxCell id="PXMOqG3apg1fKfNR8DtC-170" value="&lt;font style=&quot;font-size: 13px;&quot;&gt;закончить торги&lt;/font&gt;" style="text;html=1;strokeColor=none;fillColor=none;align=center;verticalAlign=middle;whiteSpace=wrap;rounded=0;labelBackgroundColor=#F9F7ED;" vertex="1" parent="1">
          <mxGeometry x="-655" y="980" width="100" height="30" as="geometry" />
        </mxCell>
        <mxCell id="PXMOqG3apg1fKfNR8DtC-178" style="edgeStyle=orthogonalEdgeStyle;rounded=0;orthogonalLoop=1;jettySize=auto;html=1;exitX=0.5;exitY=1;exitDx=0;exitDy=0;entryX=0.5;entryY=0;entryDx=0;entryDy=0;strokeColor=#000000;" edge="1" parent="1" source="PXMOqG3apg1fKfNR8DtC-171" target="PXMOqG3apg1fKfNR8DtC-170">
          <mxGeometry relative="1" as="geometry" />
        </mxCell>
        <mxCell id="PXMOqG3apg1fKfNR8DtC-171" value="&lt;font style=&quot;font-size: 14px;&quot;&gt;начать торги&lt;/font&gt;" style="text;html=1;strokeColor=none;fillColor=none;align=center;verticalAlign=middle;whiteSpace=wrap;rounded=0;labelBackgroundColor=#F9F7ED;" vertex="1" parent="1">
          <mxGeometry x="-660" y="925" width="100" height="35" as="geometry" />
        </mxCell>
        <mxCell id="PXMOqG3apg1fKfNR8DtC-172" value="&lt;font style=&quot;font-size: 14px;&quot;&gt;график акций&lt;/font&gt;" style="text;html=1;strokeColor=none;fillColor=none;align=center;verticalAlign=middle;whiteSpace=wrap;rounded=0;labelBackgroundColor=#F9F7ED;" vertex="1" parent="1">
          <mxGeometry x="-650" y="867.5" width="90" height="30" as="geometry" />
        </mxCell>
        <mxCell id="PXMOqG3apg1fKfNR8DtC-182" value="" style="rounded=0;whiteSpace=wrap;html=1;labelBackgroundColor=#F9F7ED;fillColor=none;" vertex="1" parent="1">
          <mxGeometry x="-1100" y="1040" width="150" height="70" as="geometry" />
        </mxCell>
        <mxCell id="PXMOqG3apg1fKfNR8DtC-183" value="&lt;font style=&quot;font-size: 16px;&quot;&gt;Временное хранилище транзакций&lt;/font&gt;" style="text;html=1;strokeColor=none;fillColor=none;align=center;verticalAlign=middle;whiteSpace=wrap;rounded=0;labelBackgroundColor=#F9F7ED;" vertex="1" parent="1">
          <mxGeometry x="-1095" y="1050" width="135" height="50" as="geometry" />
        </mxCell>
        <mxCell id="PXMOqG3apg1fKfNR8DtC-209" style="edgeStyle=orthogonalEdgeStyle;rounded=0;orthogonalLoop=1;jettySize=auto;html=1;exitX=0.25;exitY=1;exitDx=0;exitDy=0;strokeColor=#000000;fontSize=23;" edge="1" parent="1" source="PXMOqG3apg1fKfNR8DtC-189" target="PXMOqG3apg1fKfNR8DtC-207">
          <mxGeometry relative="1" as="geometry" />
        </mxCell>
        <mxCell id="PXMOqG3apg1fKfNR8DtC-189" value="" style="rounded=0;whiteSpace=wrap;html=1;labelBackgroundColor=#F9F7ED;fillColor=#cdeb8b;strokeColor=#36393d;" vertex="1" parent="1">
          <mxGeometry x="-2250" y="240" width="780" height="740" as="geometry" />
        </mxCell>
        <mxCell id="PXMOqG3apg1fKfNR8DtC-191" value="&lt;b&gt;&lt;font style=&quot;font-size: 23px;&quot;&gt;Обменник&lt;/font&gt;&lt;/b&gt;" style="text;html=1;strokeColor=none;fillColor=none;align=center;verticalAlign=middle;whiteSpace=wrap;rounded=0;labelBackgroundColor=#CDEB8B;fontSize=20;" vertex="1" parent="1">
          <mxGeometry x="-2030" y="285" width="337" height="30" as="geometry" />
        </mxCell>
        <mxCell id="PXMOqG3apg1fKfNR8DtC-202" style="edgeStyle=orthogonalEdgeStyle;rounded=0;orthogonalLoop=1;jettySize=auto;html=1;exitX=0.5;exitY=1;exitDx=0;exitDy=0;strokeColor=#000000;fontSize=20;" edge="1" parent="1" source="PXMOqG3apg1fKfNR8DtC-192" target="PXMOqG3apg1fKfNR8DtC-194">
          <mxGeometry relative="1" as="geometry" />
        </mxCell>
        <mxCell id="PXMOqG3apg1fKfNR8DtC-192" value="" style="rounded=0;whiteSpace=wrap;html=1;labelBackgroundColor=#CDEB8B;fontSize=20;" vertex="1" parent="1">
          <mxGeometry x="-2150" y="365" width="160" height="75" as="geometry" />
        </mxCell>
        <mxCell id="PXMOqG3apg1fKfNR8DtC-200" style="edgeStyle=orthogonalEdgeStyle;rounded=0;orthogonalLoop=1;jettySize=auto;html=1;exitX=0.5;exitY=1;exitDx=0;exitDy=0;entryX=0.5;entryY=0;entryDx=0;entryDy=0;strokeColor=#000000;fontSize=20;" edge="1" parent="1" source="PXMOqG3apg1fKfNR8DtC-193" target="PXMOqG3apg1fKfNR8DtC-195">
          <mxGeometry relative="1" as="geometry" />
        </mxCell>
        <mxCell id="PXMOqG3apg1fKfNR8DtC-193" value="" style="rounded=0;whiteSpace=wrap;html=1;labelBackgroundColor=#CDEB8B;fontSize=20;" vertex="1" parent="1">
          <mxGeometry x="-1750" y="370" width="160" height="75" as="geometry" />
        </mxCell>
        <mxCell id="PXMOqG3apg1fKfNR8DtC-194" value="" style="whiteSpace=wrap;html=1;aspect=fixed;labelBackgroundColor=#CDEB8B;fontSize=20;fillColor=#cce5ff;strokeColor=#36393d;" vertex="1" parent="1">
          <mxGeometry x="-2205" y="560" width="270" height="270" as="geometry" />
        </mxCell>
        <mxCell id="PXMOqG3apg1fKfNR8DtC-195" value="" style="whiteSpace=wrap;html=1;aspect=fixed;labelBackgroundColor=#CDEB8B;fontSize=20;fillColor=#cce5ff;strokeColor=#36393d;" vertex="1" parent="1">
          <mxGeometry x="-1807.5" y="555" width="275" height="275" as="geometry" />
        </mxCell>
        <mxCell id="PXMOqG3apg1fKfNR8DtC-201" style="edgeStyle=orthogonalEdgeStyle;rounded=0;orthogonalLoop=1;jettySize=auto;html=1;exitX=0.5;exitY=1;exitDx=0;exitDy=0;strokeColor=#000000;fontSize=20;" edge="1" parent="1" source="PXMOqG3apg1fKfNR8DtC-196" target="PXMOqG3apg1fKfNR8DtC-198">
          <mxGeometry relative="1" as="geometry" />
        </mxCell>
        <mxCell id="PXMOqG3apg1fKfNR8DtC-196" value="" style="rounded=0;whiteSpace=wrap;html=1;labelBackgroundColor=#CDEB8B;fontSize=20;" vertex="1" parent="1">
          <mxGeometry x="-1774" y="585" width="204" height="95" as="geometry" />
        </mxCell>
        <mxCell id="PXMOqG3apg1fKfNR8DtC-203" style="edgeStyle=orthogonalEdgeStyle;rounded=0;orthogonalLoop=1;jettySize=auto;html=1;exitX=0.5;exitY=1;exitDx=0;exitDy=0;strokeColor=#000000;fontSize=20;" edge="1" parent="1" source="PXMOqG3apg1fKfNR8DtC-197" target="PXMOqG3apg1fKfNR8DtC-199">
          <mxGeometry relative="1" as="geometry" />
        </mxCell>
        <mxCell id="PXMOqG3apg1fKfNR8DtC-197" value="" style="rounded=0;whiteSpace=wrap;html=1;labelBackgroundColor=#CDEB8B;fontSize=20;" vertex="1" parent="1">
          <mxGeometry x="-2172" y="590" width="204" height="95" as="geometry" />
        </mxCell>
        <mxCell id="PXMOqG3apg1fKfNR8DtC-198" value="" style="rounded=0;whiteSpace=wrap;html=1;labelBackgroundColor=#CDEB8B;fontSize=20;" vertex="1" parent="1">
          <mxGeometry x="-1757" y="726.25" width="170" height="68.75" as="geometry" />
        </mxCell>
        <mxCell id="PXMOqG3apg1fKfNR8DtC-199" value="" style="rounded=0;whiteSpace=wrap;html=1;labelBackgroundColor=#CDEB8B;fontSize=20;" vertex="1" parent="1">
          <mxGeometry x="-2170" y="720" width="200" height="90" as="geometry" />
        </mxCell>
        <mxCell id="PXMOqG3apg1fKfNR8DtC-205" value="Купить" style="text;html=1;strokeColor=none;fillColor=none;align=center;verticalAlign=middle;whiteSpace=wrap;rounded=0;labelBackgroundColor=#FFFFFF;fontSize=23;" vertex="1" parent="1">
          <mxGeometry x="-2100" y="387.5" width="60" height="30" as="geometry" />
        </mxCell>
        <mxCell id="PXMOqG3apg1fKfNR8DtC-206" value="Продать" style="text;html=1;strokeColor=none;fillColor=none;align=center;verticalAlign=middle;whiteSpace=wrap;rounded=0;labelBackgroundColor=#FFFFFF;fontSize=23;" vertex="1" parent="1">
          <mxGeometry x="-1700" y="395" width="60" height="30" as="geometry" />
        </mxCell>
        <mxCell id="PXMOqG3apg1fKfNR8DtC-207" value="" style="ellipse;whiteSpace=wrap;html=1;aspect=fixed;labelBackgroundColor=#FFFFFF;fontSize=23;" vertex="1" parent="1">
          <mxGeometry x="-2122" y="1130" width="220" height="220" as="geometry" />
        </mxCell>
        <mxCell id="PXMOqG3apg1fKfNR8DtC-208" value="Точка в кошелёк" style="text;html=1;strokeColor=none;fillColor=none;align=center;verticalAlign=middle;whiteSpace=wrap;rounded=0;labelBackgroundColor=#FFFFFF;fontSize=23;" vertex="1" parent="1">
          <mxGeometry x="-2067" y="1165" width="110" height="150" as="geometry" />
        </mxCell>
        <mxCell id="PXMOqG3apg1fKfNR8DtC-210" value="Списать&lt;br&gt;$" style="text;html=1;strokeColor=none;fillColor=none;align=center;verticalAlign=middle;whiteSpace=wrap;rounded=0;labelBackgroundColor=#FFFFFF;fontSize=23;" vertex="1" parent="1">
          <mxGeometry x="-2150" y="610" width="160" height="42.5" as="geometry" />
        </mxCell>
        <mxCell id="PXMOqG3apg1fKfNR8DtC-211" value="Списать&lt;br&gt;btc&lt;br&gt;eth" style="text;html=1;strokeColor=none;fillColor=none;align=center;verticalAlign=middle;whiteSpace=wrap;rounded=0;labelBackgroundColor=#FFFFFF;fontSize=23;" vertex="1" parent="1">
          <mxGeometry x="-1774" y="595" width="194" height="75" as="geometry" />
        </mxCell>
        <mxCell id="PXMOqG3apg1fKfNR8DtC-212" value="Получить&amp;nbsp;&lt;br&gt;$" style="text;html=1;strokeColor=none;fillColor=none;align=center;verticalAlign=middle;whiteSpace=wrap;rounded=0;labelBackgroundColor=#FFFFFF;fontSize=23;" vertex="1" parent="1">
          <mxGeometry x="-1702" y="750" width="60" height="30" as="geometry" />
        </mxCell>
        <mxCell id="PXMOqG3apg1fKfNR8DtC-213" value="&lt;font style=&quot;font-size: 21px;&quot;&gt;получить&lt;br&gt;btc&lt;br&gt;eth&lt;/font&gt;" style="text;html=1;strokeColor=none;fillColor=none;align=center;verticalAlign=middle;whiteSpace=wrap;rounded=0;labelBackgroundColor=#FFFFFF;fontSize=23;" vertex="1" parent="1">
          <mxGeometry x="-2160" y="755" width="160" height="25" as="geometry" />
        </mxCell>
      </root>
    </mxGraphModel>
  </diagram>
</mxfile>
